<?xml version="1.0" ?><svg fill="none" height="24" viewBox="0 0 24 24" width="24" xmlns="http://www.w3.org/2000/svg"><path clip-rule="evenodd" d="M6.75 4.75L6.75 13.7123H16.1909C16.5736 13.7123 16.9087 13.4892 17.1017 13.1127C17.2955 12.7344 17.3123 12.2551 17.0747 11.8389L16.5851 10.981C15.9718 9.90641 15.9718 8.55592 16.5851 7.48132L17.0747 6.62347C17.3123 6.20724 17.2955 5.72792 17.1017 5.34965C16.9087 4.97311 16.5736 4.75 16.1909 4.75L6.75 4.75ZM6.75 15.2123H16.1909C17.2239 15.2123 18.0294 14.5912 18.4365 13.7968C18.8428 13.0042 18.8858 11.9859 18.3775 11.0953L17.8879 10.2375C17.5375 9.62367 17.5375 8.83865 17.8879 8.22486L18.3775 7.36701C18.8858 6.47642 18.8428 5.45812 18.4365 4.66548C18.0294 3.8711 17.2239 3.25 16.1909 3.25L6 3.25C5.58579 3.25 5.25 3.58579 5.25 4L5.25 20C5.25 20.4142 5.58579 20.75 6 20.75C6.41421 20.75 6.75 20.4142 6.75 20V15.2123Z" fill="black" fill-rule="evenodd"/></svg>